<?xml version="1.0" encoding="UTF-8"?>
<svg xmlns="http://www.w3.org/2000/svg" viewBox="0 0 64 64">
  <defs>
    <linearGradient id="g" x1="0" y1="0" x2="1" y2="1">
      <stop offset="0" stop-color="#4285f4"/>
      <stop offset="1" stop-color="#1967d2"/>
    </linearGradient>
  </defs>
  <rect width="64" height="64" rx="12" ry="12" fill="url(#g)"/>
  <g fill="#fff">
    <path d="M32 14a10 10 0 0 0-10 10v6a10 10 0 0 0 20 0v-6A10 10 0 0 0 32 14zm6 16a6 6 0 0 1-12 0v-6a6 6 0 0 1 12 0z"/>
    <path d="M22 36h20a10 10 0 0 1-20 0z" opacity=".9"/>
    <text x="32" y="54" font-size="12" text-anchor="middle" font-family="Inter, Arial, sans-serif" opacity=".9">V</text>
  </g>
</svg>
